<?xml version="1.0" encoding="utf-8"?>
<!-- Generator: Adobe Illustrator 16.0.0, SVG Export Plug-In . SVG Version: 6.00 Build 0)  -->
<!DOCTYPE svg PUBLIC "-//W3C//DTD SVG 1.1//EN" "http://www.w3.org/Graphics/SVG/1.1/DTD/svg11.dtd">
<svg version="1.1" id="Layer_1" xmlns="http://www.w3.org/2000/svg" xmlns:xlink="http://www.w3.org/1999/xlink" x="0px" y="0px"
	 width="353.933px" height="94.382px" viewBox="0 0 353.933 94.382" enable-background="new 0 0 353.933 94.382"
	 xml:space="preserve">
<text transform="matrix(0.9 0 0 1 51.3193 78.2139)" fill="#DCDCDC" font-family="'GillSans-BoldItalic'" font-size="98.4751" letter-spacing="-2.222">hunde</text>
<g>
	<path fill="#DCDCDC" d="M70.016,29.289l-7.623,12.08H34.868l-2.899,15.964c-0.231,1.347-0.347,2.404-0.347,3.173
		c0,2.726,1.082,4.088,3.246,4.088c2.336,0,5.178-1.378,8.525-4.135L42.57,75.268c-3.953,2.598-8.107,3.896-12.463,3.896
		c-1.904,0-3.765-0.378-5.583-1.13c-1.818-0.753-3.477-2.141-4.977-4.16c-1.789-2.339-2.683-5.416-2.683-9.231
		c0-1.698,0.158-3.478,0.476-5.337l2.986-17.936h-8.136l1.947-12.021h8.222l1.688-9.76h14.541l-1.688,9.76L70.016,29.289z"/>
</g>
<polyline fill="#DCDCDC" points="34.319,41.205 53.81,43.289 33.764,47.447 46.726,49.27 35.109,51.955 40.56,55.205 31.968,57.333 
	"/>
<path fill="#DCDCDC" d="M35.489,60.506"/>
<g>
	<path fill="#DCDCDC" d="M344.777,33.483l-6.795,15.482c-0.779-1.506-1.645-2.789-2.596-3.847c-0.953-1.058-2.164-1.587-3.636-1.587
		c-2.827,0-5.425,2.26-7.79,6.78l-0.738,5.554l0.625,3.138l-1.445,3.029l2.966,4.971l-4.521,3.667l5.833,3.333l-6.149,2.102
		l12.149,2.191h-26.722l6.578-48.949h14.281l-0.909,7.021c3.952-5.257,7.472-7.886,10.56-7.886c1.615,0,3.051,0.44,4.305,1.322
		C342.029,30.687,343.363,31.913,344.777,33.483z"/>
</g>
</svg>
